<svg width="16" height="16" viewBox="0 0 16 16" fill="none" xmlns="http://www.w3.org/2000/svg">
<g clip-path="url(#clip0_161_216)">
<path d="M2.34407 2.34296H2.34307C3.8434 0.842632 5.87828 -0.000244156 8.00007 -0.000244141C10.1219 -0.000244125 12.1567 0.842632 13.6571 2.34296C15.1574 3.84329 16.0003 5.87818 16.0003 7.99996C16.0003 10.1217 15.1574 12.1566 13.6571 13.657C12.666 14.6593 11.4277 15.3821 10.0675 15.7522C8.70732 16.1222 7.27352 16.1264 5.91121 15.7643C4.5489 15.4022 3.30641 14.6866 2.3095 13.69C1.31259 12.6934 0.596627 11.4512 0.234067 10.089C-0.127952 8.72641 -0.123467 7.29238 0.247066 5.93212C0.6176 4.57186 1.34102 3.33367 2.34407 2.34296ZM3.40407 12.596C4.01084 13.2045 4.73226 13.6867 5.52659 14.0146C6.32091 14.3425 7.17237 14.5096 8.03172 14.5063C8.89106 14.503 9.74122 14.3294 10.533 13.9954C11.3248 13.6614 12.0425 13.1738 12.6446 12.5606C13.2467 11.9475 13.7213 11.221 14.0408 10.4233C14.3603 9.62557 14.5185 8.7724 14.5062 7.91314C14.4939 7.05388 14.3113 6.2056 13.969 5.41736C13.6267 4.62912 13.1315 3.91658 12.5121 3.32096C11.278 2.13432 9.62551 1.48249 7.91362 1.50705C6.20174 1.53161 4.56867 2.23057 3.36911 3.45213C2.16955 4.67369 1.50037 6.31918 1.50691 8.03123C1.51346 9.74328 2.1952 11.3836 3.40407 12.596ZM6.03007 4.96996L8.00007 6.93996L9.97007 4.96996C10.0617 4.87124 10.1783 4.79907 10.3076 4.76105C10.4368 4.72304 10.5739 4.72059 10.7045 4.75396C10.835 4.78733 10.9541 4.8553 11.0492 4.95068C11.1444 5.04607 11.212 5.16535 11.2451 5.29596C11.2785 5.42634 11.2762 5.56331 11.2383 5.69247C11.2005 5.82164 11.1285 5.93822 11.0301 6.02996L9.06007 7.99996L11.0301 9.96996C11.1288 10.0616 11.201 10.1782 11.239 10.3075C11.277 10.4367 11.2794 10.5738 11.2461 10.7044C11.2127 10.8349 11.1447 10.954 11.0493 11.0491C10.954 11.1443 10.8347 11.2119 10.7041 11.245C10.5737 11.2784 10.4367 11.276 10.3076 11.2382C10.1784 11.2004 10.0618 11.1284 9.97007 11.03L8.00007 9.05996L6.03007 11.03C5.9384 11.1287 5.82179 11.2009 5.69254 11.2389C5.56329 11.2769 5.42619 11.2793 5.29566 11.246C5.16514 11.2126 5.04603 11.1446 4.95089 11.0492C4.85575 10.9539 4.7881 10.8346 4.75507 10.704C4.72165 10.5736 4.72398 10.4366 4.76182 10.3075C4.79965 10.1783 4.87159 10.0617 4.97007 9.96996L6.94007 7.99996L4.97007 6.02996C4.83766 5.8877 4.76555 5.69965 4.76891 5.50533C4.77227 5.31101 4.85082 5.12557 4.98807 4.98796C5.12567 4.85072 5.31112 4.77216 5.50544 4.76881C5.69975 4.76545 5.88781 4.83755 6.03007 4.96996Z" fill="#6B8C85"/>
</g>
<defs>
<clipPath id="clip0_161_216">
<rect width="16" height="16" fill="white"/>
</clipPath>
</defs>
</svg>
