<svg width="16" height="16" viewBox="0 0 16 16" fill="none" xmlns="http://www.w3.org/2000/svg">
<path d="M2.09375 0.125H13.9062C14.993 0.125 15.875 1.007 15.875 2.09375V13.9062C15.875 14.4284 15.6676 14.9292 15.2984 15.2984C14.9292 15.6676 14.4284 15.875 13.9062 15.875H2.09375C1.57161 15.875 1.07085 15.6676 0.701633 15.2984C0.332421 14.9292 0.125 14.4284 0.125 13.9062V2.09375C0.125 1.007 1.007 0.125 2.09375 0.125ZM1.8125 2.09375V13.9062C1.8125 14.0615 1.9385 14.1875 2.09375 14.1875H13.9062C13.9808 14.1875 14.0524 14.1579 14.1051 14.1051C14.1579 14.0524 14.1875 13.9808 14.1875 13.9062V2.09375C14.1875 2.01916 14.1579 1.94762 14.1051 1.89488C14.0524 1.84213 13.9808 1.8125 13.9062 1.8125H2.09375C2.01916 1.8125 1.94762 1.84213 1.89488 1.89488C1.84213 1.94762 1.8125 2.01916 1.8125 2.09375ZM12.2525 6.065L7.19 11.1275C7.0318 11.2855 6.81734 11.3743 6.59375 11.3743C6.37016 11.3743 6.1557 11.2855 5.9975 11.1275L3.7475 8.8775C3.59854 8.71746 3.51742 8.5059 3.5212 8.28729C3.52498 8.06868 3.61335 7.86005 3.76775 7.70525C3.92255 7.55085 4.13118 7.46248 4.34979 7.4587C4.5684 7.45492 4.77996 7.53604 4.94 7.685L6.59375 9.33875L11.06 4.8725C11.22 4.72354 11.4316 4.64242 11.6502 4.6462C11.8688 4.64998 12.0774 4.73835 12.2323 4.89275C12.3866 5.04755 12.475 5.25618 12.4788 5.47479C12.4826 5.6934 12.4015 5.90496 12.2525 6.065Z" fill="#90ABA5"/>
</svg>
