<svg width="16" height="16" viewBox="0 0 16 16" fill="none" xmlns="http://www.w3.org/2000/svg">
<path d="M2 0H14C15.104 0 16 0.896 16 2V14C16 14.5304 15.7893 15.0391 15.4142 15.4142C15.0391 15.7893 14.5304 16 14 16H2C1.46957 16 0.960859 15.7893 0.585786 15.4142C0.210714 15.0391 0 14.5304 0 14V2C0 0.896 0.896 0 2 0ZM1.71429 2V14C1.71429 14.1577 1.84229 14.2857 2 14.2857H14C14.0758 14.2857 14.1484 14.2556 14.202 14.202C14.2556 14.1484 14.2857 14.0758 14.2857 14V2C14.2857 1.92422 14.2556 1.85155 14.202 1.79797C14.1484 1.74439 14.0758 1.71429 14 1.71429H2C1.92422 1.71429 1.85155 1.74439 1.79797 1.79797C1.74439 1.85155 1.71429 1.92422 1.71429 2Z" fill="black"/>
</svg>
