<svg width="38" height="29" viewBox="0 0 38 29" fill="none" xmlns="http://www.w3.org/2000/svg">
<path d="M30.2419 19.7982V24.5385C30.2419 26.2208 29.2994 27.5832 28.1367 27.5832H10.786C9.62327 27.5832 8.68079 26.2208 8.68079 24.5385V20.8684C9.1212 20.7318 9.54987 20.45 9.9433 20.2166C10.1462 20.0954 10.3638 20.0007 10.5907 19.9347C10.8726 19.8525 11.1192 19.5956 11.2866 19.5941C12.5109 19.0891 16.5392 18.6414 19.9979 18.5401C24.1157 18.427 27.6111 19.1361 30.2419 19.7982Z" stroke="black" stroke-width="2" stroke-miterlimit="10"/>
<path d="M26.654 24.3859L25.7556 23.4243C25.74 23.4077 25.7211 23.3944 25.7001 23.3854C25.6792 23.3763 25.6566 23.3717 25.6338 23.3717C25.6109 23.3717 25.5883 23.3763 25.5674 23.3854C25.5464 23.3944 25.5276 23.4077 25.5119 23.4243L24.6135 24.3859C24.5913 24.4127 24.5613 24.4318 24.5277 24.4407C24.494 24.4495 24.4584 24.4475 24.426 24.435C24.3935 24.4225 24.3658 24.4001 24.3468 24.371C24.3277 24.3419 24.3183 24.3076 24.3199 24.2728V19.0525C24.3199 19.0085 24.3373 18.9663 24.3684 18.9352C24.3996 18.9041 24.4418 18.8866 24.4858 18.8866L26.77 19.1802C26.814 19.1802 26.8562 19.1977 26.8873 19.2288C26.9184 19.2599 26.9359 19.3021 26.9359 19.3461V24.2772C26.934 24.309 26.9231 24.3396 26.9043 24.3654C26.8855 24.3911 26.8597 24.4109 26.83 24.4223C26.8002 24.4338 26.7678 24.4364 26.7366 24.43C26.7054 24.4235 26.6768 24.4082 26.654 24.3859Z" fill="black"/>
<path d="M36.9992 13.9202C36.9478 17.2042 34.1879 19.8041 30.9054 19.8041C30.6896 19.7483 30.465 19.6925 30.2418 19.6367C26.8936 18.8179 23.4508 18.4515 20.0052 18.5475C16.5465 18.6458 13.6486 19.4885 11.2939 19.8041C11.0594 19.8157 10.8265 19.8486 10.598 19.9024C10.3719 19.9667 10.1545 20.0584 9.95063 20.1755C9.55258 20.4055 9.12882 20.5878 8.68811 20.7187C7.79598 20.9857 6.8538 21.0405 5.93673 20.8787C5.01967 20.7169 4.15312 20.3429 3.40624 19.7867C2.65936 19.2305 2.05283 18.5075 1.63504 17.6752C1.21726 16.843 0.999795 15.9246 1 14.9933C1 13.1965 1.9234 11.4333 3.2872 10.2868C5.7124 8.25357 9.35901 7.98199 12.2422 8.0319C16.1663 8.09796 17.5918 6.56386 19.4694 4.43814C21.6568 1.9689 23.0661 1 26.582 1C30.098 1 32.9489 3.67476 32.9489 6.97491V6.98812C32.9477 7.31413 33.0348 7.63439 33.201 7.91485C33.3672 8.19531 33.6063 8.4255 33.8928 8.58094C34.8478 9.10359 35.6419 9.87715 36.1893 10.8181C36.7368 11.7591 37.0168 12.8317 36.9992 13.9202Z" stroke="black" stroke-width="2" stroke-miterlimit="10"/>
<path d="M28.4156 19.2228C28.4156 19.2228 31.387 17.0486 31.1315 15.0506" stroke="black" stroke-width="2" stroke-miterlimit="10" stroke-linecap="round"/>
<path d="M11.2866 19.2228C11.2866 19.2228 9.69818 18.5372 10.1841 16.8636" stroke="black" stroke-width="2" stroke-miterlimit="10" stroke-linecap="round"/>
</svg>
