<svg width="15" height="15" viewBox="0 0 15 15" fill="none" xmlns="http://www.w3.org/2000/svg">
<path d="M9.67997 10.74C8.47433 11.6758 6.95739 12.117 5.43792 11.9738C3.91845 11.8306 2.51067 11.1137 1.50113 9.96907C0.491599 8.82445 -0.0438024 7.33814 0.00391234 5.81269C0.0516271 4.28723 0.678872 2.83728 1.75797 1.758C2.83725 0.678902 4.2872 0.0516576 5.81265 0.00394286C7.33811 -0.0437719 8.82442 0.49163 9.96904 1.50116C11.1137 2.5107 11.8305 3.91848 11.9738 5.43795C12.117 6.95742 11.6758 8.47437 10.74 9.68L13.78 12.72C13.8787 12.8117 13.9509 12.9283 13.9889 13.0575C14.0269 13.1868 14.0293 13.3239 13.996 13.4544C13.9626 13.5849 13.8946 13.704 13.7992 13.7992C13.7039 13.8943 13.5846 13.962 13.454 13.995C13.3236 14.0284 13.1866 14.0261 13.0575 13.9882C12.9283 13.9504 12.8117 13.8785 12.72 13.78L9.67997 10.74ZM10.5 6C10.5089 5.4036 10.3991 4.81139 10.177 4.25782C9.95491 3.70424 9.62497 3.20035 9.20637 2.77545C8.78776 2.35056 8.28884 2.01315 7.73864 1.78284C7.18844 1.55253 6.59793 1.43392 6.00147 1.43392C5.40501 1.43392 4.8145 1.55253 4.26429 1.78284C3.71409 2.01315 3.21517 2.35056 2.79657 2.77545C2.37796 3.20035 2.04802 3.70424 1.82594 4.25782C1.60386 4.81139 1.49407 5.4036 1.50297 6C1.52058 7.18146 2.00228 8.30857 2.844 9.13783C3.68571 9.96708 4.81988 10.4319 6.00147 10.4319C7.18306 10.4319 8.31722 9.96708 9.15894 9.13783C10.0007 8.30857 10.4824 7.18146 10.5 6Z" fill="#6B8C85"/>
</svg>
