<svg width="14" height="9" viewBox="0 0 14 9" fill="none" xmlns="http://www.w3.org/2000/svg">
<path d="M0 8.25C0 8.66421 0.335786 9 0.75 9H3.91667C4.33088 9 4.66667 8.66421 4.66667 8.25C4.66667 7.83579 4.33088 7.5 3.91667 7.5H0.749999C0.335786 7.5 0 7.83579 0 8.25ZM0.75 0C0.335786 0 0 0.335786 0 0.75C0 1.16421 0.335786 1.5 0.75 1.5H13.25C13.6642 1.5 14 1.16421 14 0.75C14 0.335786 13.6642 0 13.25 0H0.75ZM0 4.5C0 4.91421 0.335786 5.25 0.75 5.25H8.58333C8.99755 5.25 9.33333 4.91421 9.33333 4.5C9.33333 4.08579 8.99755 3.75 8.58333 3.75H0.749999C0.335786 3.75 0 4.08579 0 4.5Z" fill="#6B8C85"/>
</svg>
